<svg width="35" height="25" viewBox="0 0 35 25" fill="none" xmlns="http://www.w3.org/2000/svg">
<path d="M33.4106 18.5251L29.7657 15.8687C28.9817 15.3384 27.9927 14.987 26.9258 14.8597C25.859 14.7324 24.7631 14.8351 23.7788 15.1545L22.1941 14.0268C24.0616 12.2511 24.9144 10.038 24.581 7.83284C24.2475 5.62771 22.7526 3.59433 20.397 2.14204C18.0415 0.689745 15.0003 -0.0736229 11.8856 0.00560306C8.77087 0.084829 5.81399 1.00077 3.61017 2.56903C1.40634 4.1373 0.119207 6.24144 0.00787378 8.45789C-0.10346 10.6743 0.969274 12.8385 3.01013 14.5147C5.05098 16.191 7.90841 17.2548 11.0072 17.4921C14.106 17.7294 17.2161 17.1224 19.7113 15.7935L21.2785 16.9087C20.7768 17.61 20.597 18.4056 20.7644 19.1834C20.9318 19.9612 21.4381 20.682 22.2117 21.2442L25.9447 23.9006C26.9351 24.6046 28.2778 25 29.6777 25C31.0775 25 32.4202 24.6046 33.4106 23.9006C33.9138 23.5506 34.3135 23.1325 34.5865 22.6709C34.8594 22.2094 35 21.7136 35 21.2129C35 20.7121 34.8594 20.2164 34.5865 19.7549C34.3135 19.2933 33.9138 18.8752 33.4106 18.5251ZM18.4787 13.2123C17.2466 14.0869 15.6778 14.682 13.9705 14.9225C12.2633 15.163 10.4942 15.038 8.88675 14.5633C7.27929 14.0886 5.90558 13.2856 4.93915 12.2557C3.97271 11.2257 3.45692 10.015 3.45692 8.77658C3.45692 7.53812 3.97271 6.32745 4.93915 5.29749C5.90558 4.26754 7.27929 3.46451 8.88675 2.98985C10.4942 2.51519 12.2633 2.3902 13.9705 2.63066C15.6778 2.87112 17.2466 3.46624 18.4787 4.34085C19.2986 4.92283 19.9491 5.6142 20.393 6.37535C20.8368 7.13651 21.0653 7.95249 21.0653 8.77658C21.0653 9.60066 20.8368 10.4166 20.393 11.1778C19.9491 11.939 19.2986 12.6303 18.4787 13.2123ZM30.9278 22.0712C30.7642 22.1887 30.5694 22.2819 30.3548 22.3455C30.1403 22.4091 29.9101 22.4419 29.6777 22.4419C29.4452 22.4419 29.215 22.4091 29.0005 22.3455C28.7859 22.2819 28.5911 22.1887 28.4275 22.0712L24.6945 19.4148C24.5294 19.2983 24.3984 19.1597 24.309 19.007C24.2197 18.8543 24.1736 18.6906 24.1736 18.5251C24.1736 18.3597 24.2197 18.196 24.309 18.0433C24.3984 17.8906 24.5294 17.752 24.6945 17.6355C24.8582 17.5181 25.0529 17.4248 25.2675 17.3612C25.4821 17.2976 25.7122 17.2649 25.9447 17.2649C26.1771 17.2649 26.4073 17.2976 26.6219 17.3612C26.8364 17.4248 27.0312 17.5181 27.1949 17.6355L30.9278 20.2919C31.0929 20.4084 31.2239 20.547 31.3133 20.6997C31.4027 20.8524 31.4487 21.0162 31.4487 21.1816C31.4487 21.347 31.4027 21.5108 31.3133 21.6635C31.2239 21.8161 31.0929 21.9547 30.9278 22.0712Z" fill="#424866"/>
</svg>
